<?xml version="1.0" encoding="UTF-8" standalone="no"?>
<!-- Created with Inkscape (http://www.inkscape.org/) -->

<svg
   version="1.1"
   id="svg1"
   width="77.559967"
   height="77.932152"
   viewBox="0 0 77.559967 77.932152"
   sodipodi:docname="JM_Logo.svg"
   inkscape:version="1.3.2 (091e20e, 2023-11-25, custom)"
   xmlns:inkscape="http://www.inkscape.org/namespaces/inkscape"
   xmlns:sodipodi="http://sodipodi.sourceforge.net/DTD/sodipodi-0.dtd"
   xmlns="http://www.w3.org/2000/svg"
   xmlns:svg="http://www.w3.org/2000/svg">
  <defs
     id="defs1" />
  <sodipodi:namedview
     id="namedview1"
     pagecolor="#ffffff"
     bordercolor="#000000"
     borderopacity="0.25"
     inkscape:showpageshadow="2"
     inkscape:pageopacity="0.0"
     inkscape:pagecheckerboard="0"
     inkscape:deskcolor="#d1d1d1"
     inkscape:zoom="7.512195"
     inkscape:cx="71.017858"
     inkscape:cy="20.899351"
     inkscape:window-width="2880"
     inkscape:window-height="1708"
     inkscape:window-x="-12"
     inkscape:window-y="-12"
     inkscape:window-maximized="1"
     inkscape:current-layer="g1" />
  <g
     inkscape:groupmode="layer"
     inkscape:label="Image"
     id="g1"
     transform="translate(-13.183328,-8.6490205)">
    <path
       style="display:inline;fill:#d0d0d0;fill-opacity:1"
       d="m 33.79137,58.488412 c -3.197879,-1.392066 -4.424912,-3.887315 -4.69559,-9.548773 -0.316938,-6.629027 0.106679,-8.714414 1.939881,-9.549677 1.796895,-0.81872 3.531112,-0.03357 3.951214,1.78887 0.160916,0.698071 0.356809,3.583506 0.435318,6.412077 0.137072,4.938523 0.196936,5.15052 1.506692,5.33571 1.970188,0.278571 2.331534,-0.72027 2.343723,-6.478567 0.01264,-5.972605 0.925278,-8.078216 4.168368,-9.617163 2.545874,-1.208096 4.559191,-1.208096 7.105064,0 3.243091,1.538947 4.155726,3.644558 4.168368,9.617163 0.01219,5.758297 0.373536,6.757138 2.343724,6.478567 1.313445,-0.185712 1.374527,-0.408193 1.649662,-6.00861 0.230149,-4.684708 0.515878,-6.129417 1.469192,-7.428571 3.657308,-4.984093 10.745897,-4.460574 13.529921,0.999234 0.758546,1.487602 0.999326,3.36966 1,7.816523 7.73e-4,5.095946 -0.147638,6.005669 -1.141969,7 -1.351896,1.351896 -2.24334,1.431269 -3.747926,0.333711 -0.944379,-0.688901 -1.151676,-1.729153 -1.394932,-7 -0.283664,-6.146434 -0.295964,-6.190854 -1.714285,-6.190854 -1.408654,0 -1.433576,0.08244 -1.787492,5.913292 -0.401204,6.609919 -1.128992,8.204239 -4.538843,9.942963 -2.51536,1.282614 -4.906711,1.268543 -7.352715,-0.04326 -2.98308,-1.599844 -4.035237,-4.106745 -4.035237,-9.614484 0,-5.577243 -0.279749,-6.484222 -2,-6.484222 -1.713428,0 -2,0.910611 -2,6.355215 0,3.381005 -0.285839,5.107748 -1.114354,6.731772 -1.827017,3.581249 -6.128748,4.962492 -10.087784,3.239087 z"
       id="path3" />
    <path
       d="m 52.388406,15.566989 c -14.06755,-0.085 -27.755433,9.247079 -31.667969,24.572266 -3.904904,15.295298 5.029562,31.838041 20.357422,37.691406 5.591158,2.135137 13.449669,2.350944 19.916016,0.546875 9.337483,-2.605098 17.471062,-10.277425 21.128906,-19.929687 1.589613,-4.194643 2.179286,-12.78845 1.201172,-17.5 C 81.833165,33.766761 77.09852,26.47349 70.923562,21.84238 65.254579,17.590742 58.782747,15.605624 52.388406,15.566989 Z"
       style="display:none;fill:#d0d0d0"
       id="path5" />
    <path
       d="M 52.316141,8.6548799 C 42.020525,8.4614045 32.390182,12.432659 24.669656,20.135349 c -5.151461,5.13956 -7.996659,9.75864 -10.048828,16.3125 -1.913352,6.110533 -1.917824,16.147468 -0.0098,22.285156 4.331666,13.93376 16.014993,24.493347 30.097657,27.203125 13.94245,2.682793 29.384803,-3.173193 37.822299,-14.341797 C 100.89971,47.279888 86.785225,12.989623 56.765359,8.9947236 55.271025,8.7958648 53.786943,8.6825192 52.316141,8.6548799 Z m 0.07227,6.9121091 c 6.394341,0.03864 12.866173,2.023753 18.535156,6.275391 6.174958,4.63111 10.909603,11.924381 12.400391,19.105469 0.978114,4.71155 0.388441,13.305357 -1.201172,17.5 C 78.464937,68.100111 70.331358,75.772438 60.993875,78.377536 54.527528,80.181605 46.669017,79.965798 41.077859,77.830661 25.749999,71.977296 16.815533,55.434553 20.720437,40.139255 24.632973,24.814068 38.320856,15.481993 52.388406,15.566989 Z"
       style="display:inline;fill:#d0d0d0"
       id="path4" />
  </g>
</svg>
